<svg xmlns="http://www.w3.org/2000/svg" width="592" height="592" preserveAspectRatio="xMidYMid meet" version="1.0" viewBox="0 0 444 444"><metadata>Created by potrace 1.11, written by Peter Selinger 2001-2013</metadata><g fill="#000" stroke="none"><path d="M379 4425 c-177 -48 -318 -190 -365 -368 -11 -43 -14 -353 -13 -1832 0 -1223 3 -1796 10 -1830 28 -130 120 -255 238 -325 127 -75 -4 -70 1979 -70 1970 0 1832 -4 1959 66 74 42 159 131 196 205 60 125 57 6 57 1949 0 1562 -2 1783 -15 1835 -49 192 -205 341 -390 374 -92 17 -3595 13 -3656 -4z" transform="translate(0.000000,444.000000) scale(0.100000,-0.100000)"/></g></svg>